=========== LOVE LETTER - SHWAYZE FT. CATARACS AND DEV HD ===================

Format                           : MPEG-4
Format profile                   : Base Media / Version 2
Codec ID                         : mp42
File size                        : 145 MiB
Duration                         : 3mn 46s
Overall bit rate                 : 5 364 Kbps
Encoded date                     : UTC 2011-06-02 01:44:23

Video
ID                               : 1
Format                           : AVC
Format/Info                      : Advanced Video Codec
Format profile                   : High@L4.0
Format settings, CABAC           : Yes
Format settings, ReFrames        : 1 frame
Codec ID                         : avc1
Codec ID/Info                    : Advanced Video Coding
Duration                         : 3mn 46s
Bit rate mode                    : Variable
Bit rate                         : 5 207 Kbps
Maximum bit rate                 : 9 494 Kbps
Width                            : 1 920 pixels
Height                           : 1 080 pixels
Display aspect ratio             : 16:9
Frame rate mode                  : Variable
Frame rate                       : 29.970 fps
Minimum frame rate               : 29.412 fps
Maximum frame rate               : 200.000 fps
Color space                      : YUV
Chroma subsampling               : 4:2:0
Bit depth                        : 8 bits
Scan type                        : Progressive
Bits/(Pixel*Frame)               : 0.084
Stream size                      : 141 MiB (97%)
Tagged date                      : UTC 2011-06-02 01:44:31

Audio
ID                               : 2
Format                           : AAC
Format/Info                      : Advanced Audio Codec
Format version                   : Version 4
Format profile                   : LC
Format settings, SBR             : No
Codec ID                         : 40
Duration                         : 3mn 46s
Bit rate mode                    : Variable
Bit rate                         : 149 Kbps
Maximum bit rate                 : 211 Kbps
Channel(s)                       : 2 channels
Channel positions                : Front: L R
Sampling rate                    : 44.1 KHz
Stream size                      : 4.02 MiB (3%)
Title                            : IsoMedia File Produced by Google, 5-11-2011
Encoded date                     : UTC 2011-06-02 01:44:27
Tagged date                      : UTC 2011-06-02 01:44:31

================== SCREEN SHOTS ==========================================

               http://bayimg.com/eajlaaADc
               http://bayimg.com/EAjlBaaDc
               http://bayimg.com/EAjlEaaDC


 ===========  LIFE IS TOO SHORT SO, ENJOY EVERY MOMENT ====================== 

===================================================================================
 ##  #  # # # # ### ### ###     ##  #   ###  #   ## ### ===========================
#   # # ### ### #   # #  #      # # #   #   # # #   # =============================  
#   # # ### ### ##  # #  #      ##  #   ##  ###  #  ##=============================  
#   # # # # # # #   # #  #      #   #   #   # #   # # =============================  
 ##  #  # # # # ### # #  #      #   ### ### # # ##  ###===========================
==================================================================================
		
